<svg xmlns="http://www.w3.org/2000/svg" width="48" height="49" viewBox="0 0 48 49" fill="none">
  <path d="M0 12C0 5.37258 5.37258 0 12 0H36C42.6274 0 48 5.37258 48 12V37C48 43.6274 42.6274 49 36 49H12C5.37258 49 0 43.6274 0 37V12Z" fill="white"/>
  <path d="M41.6004 18.2988H36.5074V38.7915H41.6004V18.2988Z" fill="black"/>
  <path d="M14.4643 15.1676C16.1089 15.1676 17.4352 16.5794 17.4352 18.2988H22.5282C22.5282 13.616 18.9074 9.7998 14.4643 9.7998C10.0212 9.7998 6.40045 13.616 6.40045 18.2988H11.4934C11.4934 16.5794 12.8197 15.1676 14.4643 15.1676Z" fill="#FF4B4B"/>
  <path d="M17.4353 38.7915H22.5282V33.4237L22.5282 18.2988H17.4352L17.4353 38.7915Z" fill="#5887FF"/>
  <path d="M30.5655 38.7776V33.4238H25.4726L22.5282 33.4237V38.7915L30.5655 38.7776Z" fill="#FFAA00"/>
  <path d="M30.5656 18.2988C30.5656 16.5654 31.9052 15.1676 33.5365 15.1676V9.7998C29.0935 9.7998 25.4727 13.616 25.4727 18.2988L25.4726 33.4238H30.5655L30.5656 18.2988Z" fill="#00843F"/>
  <path d="M36.5074 18.2988H41.6004C41.6004 13.616 37.9796 9.7998 33.5365 9.7998V15.1676C35.1811 15.1676 36.5074 16.5655 36.5074 18.2988Z" fill="#FC83FF"/>
  <path d="M11.4934 18.2988H6.40045L6.40039 38.7915H11.4933L11.4934 18.2988Z" fill="black"/>
</svg>